<svg xmlns="http://www.w3.org/2000/svg" viewBox="0 0 100 100">
  <!-- Background with golden amber color -->
  <rect x="10" y="10" width="80" height="80" rx="10" ry="10" fill="#E5A835"/>
  
  <!-- Cross with rays -->
  <g fill="none" stroke="#FFFFFF" stroke-width="2.5" stroke-linecap="round">
    <!-- Cross -->
    <line x1="50" y1="20" x2="50" y2="42"/>
    <line x1="42" y1="28" x2="58" y2="28"/>
    
    <!-- Rays -->
    <line x1="38" y1="18" x2="42" y2="22"/>
    <line x1="62" y1="18" x2="58" y2="22"/>
    <line x1="34" y1="24" x2="38" y2="26"/>
    <line x1="66" y1="24" x2="62" y2="26"/>
    <line x1="32" y1="32" x2="36" y2="32"/>
    <line x1="68" y1="32" x2="64" y2="32"/>
  </g>
  
  <!-- Mountain/Hill -->
  <path d="M30 55 L50 40 L70 55" fill="none" stroke="#FFFFFF" stroke-width="2.5" stroke-linejoin="round"/>
  
  <!-- Open Book -->
  <g fill="none" stroke="#FFFFFF" stroke-width="2">
    <path d="M20 60 Q35 52 50 58 Q65 52 80 60 L80 80 Q65 72 50 78 Q35 72 20 80 Z" fill="#FFFFFF"/>
    <path d="M50 58 L50 78" stroke="#E5A835" stroke-width="1.5"/>
    <path d="M25 63 Q37 57 50 62" stroke="#E5A835" stroke-width="1"/>
    <path d="M75 63 Q63 57 50 62" stroke="#E5A835" stroke-width="1"/>
    <path d="M25 68 Q37 62 50 67" stroke="#E5A835" stroke-width="1"/>
    <path d="M75 68 Q63 62 50 67" stroke="#E5A835" stroke-width="1"/>
    <path d="M25 73 Q37 67 50 72" stroke="#E5A835" stroke-width="1"/>
    <path d="M75 73 Q63 67 50 72" fill="none"/>
  </g>
</svg>
